<svg id="svg5" xmlns="http://www.w3.org/2000/svg" viewBox="0 0 592.51516 183.59831">
    <defs>
        <style>
            .cls-1,.cls-2{fill:#d4af37;fill-rule:evenodd;}.cls-1{stroke:#d4af37;stroke-miterlimit:10;stroke-width:2px;}</style>
    </defs>
    <g id="Layer1000">
        <path id="path34" class="cls-1"
            d="M436.46,102.4l6.77,7.38q-6.48995,5.73-12.21,10.07,3.86,3.82,10.34,10.43,5,5.26,8.79,9.62H436.46l-13-13.8c-8.18,6.75-14.81,11.18-19.93,13.23a42.45982,42.45982,0,0,1-16.18,3.12q-11.34,0-18.2-6.73a22.51,22.51,0,0,1-6.85-16.76,28.99976,28.99976,0,0,1,4.6-15.19q4.6-7.61,18.79-19.25Q377.74,74.4,375.46,69.6a21.55036,21.55036,0,0,1-2.26-9.2,16.1,16.1,0,0,1,5.65-12.59,23.42649,23.42649,0,0,1,16.24-5.83,24.45985,24.45985,0,0,1,11.19,2.55A18.88992,18.88992,0,0,1,414,51.42a17.16014,17.16014,0,0,1,2.67,9.17,21.43,21.43,0,0,1-3.47,10.88q-3.48,5.79-13.71,14.76l14.9,16.17,9.72,10.19Q431.91,106.5,436.46,102.4Zm-43-23.77a49.99981,49.99981,0,0,0,10.7-11.23,13.33,13.33,0,0,0,2.53-7,7.57,7.57,0,0,0-3.3-6.08,13.90009,13.90009,0,0,0-8.75-2.55,13.15009,13.15009,0,0,0-8.48,2.62,7.87,7.87,0,0,0-3.25,6.22,10.54011,10.54011,0,0,0,1.32,5.19,81.17982,81.17982,0,0,0,9.2,12.86Zm-1.3,13.56q-12.43,9.72-16.31,15.47c-2.57,3.82-3.85,7.38-3.85,10.64a13.66012,13.66012,0,0,0,4.74,10.23,16.43,16.43,0,0,0,11.62,4.44,24.93,24.93,0,0,0,10.18-2.24q7.89-3.52,18-11.91L401.08,102.4q-3.99-4.35-8.95-10.2Z"
            transform="translate(0 -0.05)" />
        <path id="path36" class="cls-1"
            d="M228.46,142.68V41.08l20.44,1q22,0,32,3.66a42.9,42.9,0,0,1,22.33,18q8,12.76,8,30.45c0,10.19-2.12,19.12-6.38,26.86s-9.77,13.47-16.54,17.15-16.31,5.52-28.54,5.52Zm9.51-8.58h11.32q20.29,0,28.13-2.61a32.77,32.77,0,0,0,17.39-13.42q6.32-9.74,6.31-23.73,0-14.69-6.86-25.12a34.51009,34.51009,0,0,0-19.09-14.29q-9.19-2.91-30.27-2.9h-6.93Z"
            transform="translate(0 -0.05)" />
        <path id="path38" class="cls-1"
            d="M547.63,43.46l26.23,59.31c2.93-1.92,5.13-5.18,6.38-7.05,3.09,1.45,4.76,2.65,6.35,3.48a38.24992,38.24992,0,0,1-9.75,9.45l14.14,32H580.06l-9.83-20.95-2.59-5.86a29.19009,29.19009,0,0,1-7,.86c-6.76,0-13.84-2.54-20.74-6.36-9.22-5.12-15.74-4.54-19-3.48l-2.57,5.75L504.4,141.7H493.15l44-98.2Zm16.9,63.3-4.77-10.77h0l-17.41-39L529.67,85.4h0l-.57,1.26L524.92,96h0l-.48,1.05a30.61981,30.61981,0,0,1,11.66,1c8.71,2.82,13.84,8.91,23.18,9.18a21.28037,21.28037,0,0,0,5.24-.5Z"
            transform="translate(0 -0.05)" />
    </g>
    <path id="path47" class="cls-2"
        d="M104.26,175.77a54.11992,54.11992,0,0,0,9.86-12.32,82.5106,82.5106,0,0,0,4.82-9.38,95.10066,95.10066,0,0,0,3.84-10.37,110.69865,110.69865,0,0,1,12.25,3.49c1.83.65,9.84,3.83,10.8,4.85l-4.29,4.71c-.75.77-1.46,1.52-2.28,2.22l-1.15,1.06c-1.07,1.08-5.13,4.28-6.15,5-2,1.4-3.23,2.25-5.36,3.57a74.66092,74.66092,0,0,1-12,6c-2.42.95-11.19,3.9-13.84,4ZM25.43,152.04a43.86224,43.86224,0,0,1,5.24-2.64c4.1-1.82,13.59-5,17.81-5.67a100.41985,100.41985,0,0,0,3.86,10.41,77.06875,77.06875,0,0,0,4.82,9.38,64.55891,64.55891,0,0,0,4.38,6.33c.73,1,1.47,1.71,2,2.4l1.26,1.38c.61.66,1.21,1.13,1.82,1.75,1.08,1.11,3.6,2.93,3.86,3.21a63.29077,63.29077,0,0,1-7.27-1.76,77.12016,77.12016,0,0,1-23.94-11.85c-2.27-1.64-3.12-2.47-5-4-.24-.19-.4-.37-.63-.55a4.48937,4.48937,0,0,1-.59-.52c-.21-.21-.38-.32-.6-.51l-2.79-2.73a9.59936,9.59936,0,0,1-1.12-1.11l-2.1-2.33a11.99753,11.99753,0,0,1-1-1.19Zm62-12.22c10.49.14,22,1,31.85,3.14a93.19167,93.19167,0,0,1-4.84,12.44,68.60015,68.60015,0,0,1-7.33,12,47.85039,47.85039,0,0,1-4.07,4.59l-1.08,1c-3.9,3.34-8.47,6.45-14.55,6.93Zm-35.44,3.15a35.80886,35.80886,0,0,1,3.63-.7c3.9-.64,7.56-1.18,11.54-1.55,5.57-.52,11-.83,16.69-.9v40.16a23.7902,23.7902,0,0,1-12.21-5,36.57957,36.57957,0,0,1-3.41-3l-1.61-1.58c-.19-.22-.31-.4-.51-.6-.63-.63-2.39-2.89-2.91-3.63A80.51979,80.51979,0,0,1,51.99,143Zm-1-3.45a81.38787,81.38787,0,0,1-2-8,140.17,140.17,0,0,1-3-26.61H83.87c0,2.83.08,30.92-.06,31.31a166.61537,166.61537,0,0,0-17.2.94c-6.26.66-9.6,1.27-15.63,2.33Zm36.45-34.58h37.88a131.11055,131.11055,0,0,1-1.53,18.33c-.35,2.37-2.45,14-3.46,16.24-2.55-.44-5.09-.94-7.71-1.34a183.52423,183.52423,0,0,0-25.18-1.92Zm36.42,35.34c.23-1.23.71-2.76,1-4,1-4.06,1.84-8.52,2.46-12.68a152.778,152.778,0,0,0,1.55-18.64h35.41a78.42012,78.42012,0,0,1-13,39.88c-.51.77-1,1.43-1.53,2.21a19.58063,19.58063,0,0,1-1.61,2.14,12.67434,12.67434,0,0,1-1.4-.75l-4.2-2.04a99.48925,99.48925,0,0,0-18.75-6.09Zm-98,7.47c-.65.3-2.28,1.28-2.68,1.42A50.79156,50.79156,0,0,1,20,144.76,78.28,78.28,0,0,1,7,104.94H42.41a144.83015,144.83015,0,0,0,4,31.36l1,4c-2.11.41-4.64,1.09-6.64,1.7s-4.17,1.27-6.23,2-4,1.54-5.94,2.39c-1,.44-1.88.93-2.81,1.36ZM65.98,101.4c-.52-.18-1.69-2.16-1.93-2.59a25.00021,25.00021,0,0,1-3.51-9.96,25.61,25.61,0,0,1,2.67-14.91,26.94009,26.94009,0,0,1,4.82-6.48,32.41971,32.41971,0,0,1,3.71-2.93,25.26,25.26,0,0,1,30.25,1.87l2.3,2.21c.68.81,1.34,1.56,2,2.5a25.35,25.35,0,0,1,1,27.66c-.29.48-.58.9-.88,1.34a13.39114,13.39114,0,0,0-.91,1.29Zm3.89-76.12a22.58012,22.58012,0,0,0,0-4.68c-.1-2.73-.23-12.31.25-13.78a4.69,4.69,0,0,1,2.09-2.58c1.24-.75,2.44-.64,4-.64H94.92c1.68,0,2.72-.12,4,.64a4.78,4.78,0,0,1,2.11,2.58c.46,1.38.24,7.19.24,9.11V25.3a65.18091,65.18091,0,0,1,8.9,3.07c1.43.61,2.63,1.25,4,1.91s2.53,1.56,3.81,2.11c.53-.41,1.1-1,1.62-1.49l6.21-6c.5-.46,1.15-1,1.58-1.48s1-1,1.55-1.52c.28-.26.52-.47.79-.73a6.21959,6.21959,0,0,1,.77-.77,4.69,4.69,0,0,1,4.77-.72c1.61.62,2.24,1.95,3.28,2.84a16.838,16.838,0,0,1,1.51,1.55c.26.28.47.53.74.8a4.34815,4.34815,0,0,0,.41.35l.37.39,1.47,1.59,9,9.33a4.4,4.4,0,0,1,1.18,1.88,4.64,4.64,0,0,1-1,4.63c-.5.51-1,1.05-1.53,1.54l-4.67,4.51c-.66.62-1.38,1.18-2,1.85l-4.24,4.16a62.0605,62.0605,0,0,1,6,14.88c4.64.05,9.31,0,14,0,2.31,0,4.41-.3,5.94,1s1.81,2.32,1.81,5.09V89.93c0,2.28.08,4.72,0,7a4.68,4.68,0,0,1-2.79,4.11c-1.49.64-4.74.4-6.58.4H109.84c.23-.53.63-1.06.92-1.59a29.49986,29.49986,0,0,0,2.25-5.06A28.87935,28.87935,0,0,0,86.33923,56.88925q-.35454-.009-.70923-.00921c-21.55,0-35,22.47-25.95,41.42.45.94,1.44,2.38,1.75,3.14H12.76c-1.88,0-5,.26-6.47-.43a4.69,4.69,0,0,1-2.75-4.32V75.94a7.67,7.67,0,0,1,.37-3.13c1.39-3.23,4.25-2.89,7.46-2.89H25.28a47.861,47.861,0,0,1,2.61-7.85c.52-1.25,1.1-2.53,1.63-3.63s1.24-2.27,1.75-3.42l-7-6.82c-.75-.8-1.63-1.38-2.35-2.24l-3.1-3a4.83,4.83,0,0,1-.92-4.65,10.73983,10.73983,0,0,1,2.64-3.46l13.54-14a4.88,4.88,0,0,1,6.58-.48l.76.77c.29.26.51.47.79.74l4.7,4.52c1.06,1,2.07,2,3.13,3l3.11,3c.63-.3,1.28-.74,1.93-1.09,2-1.07,3.89-2.07,6-3,1.4-.59,2.79-1.14,4.29-1.66.88-.3,4-1.16,4.52-1.4ZM0,73.68V97.25c.19.72.18,1.35.45,2.13a9.2802,9.2802,0,0,0,1.75,2.93c1.31,1.22,1.17.76,1.21,2.2a82.13,82.13,0,0,0,18.93,49.43c.19.24.43.54.62.74l2.58,2.87c.43.5.84.86,1.3,1.33l3.39,3.33a88.928,88.928,0,0,0,9.8,7.63c2.47,1.66,4.12,2.56,6.7,4a80.4699,80.4699,0,0,0,11.17,5,82.43008,82.43008,0,0,0,62.76-3,85.3218,85.3218,0,0,0,13.44-8c1-.77,2-1.51,3-2.32l5.68-5c.5-.46.91-.87,1.38-1.35a74.05769,74.05769,0,0,0,6.29-7.14,81.92989,81.92989,0,0,0,16.38-37.37,75.87811,75.87811,0,0,0,1-9.7c.06-2,0-1.44.61-2.05a8.56007,8.56007,0,0,0,2.24-3.2c.28-.67.36-1.66.57-2.14V73.72c-.28-.59-.29-2.94-2.47-5a8.58013,8.58013,0,0,0-5.14-2.32c-2.08-.18-14.4.09-14.83,0-.21-.06-.45-1-.58-1.4l-1.51-4.1-2.33-5.16a15.12031,15.12031,0,0,0,1.7-1.6c.62-.76,4.27-4,5-4.81l3.33-3.22c4-3.69,3.56-9.37-.34-12.87a31.58852,31.58852,0,0,1-2.21-2.29l-.13-.12-.49-.45c-1.12-1.1-3.5-3.82-4.4-4.62a5.81806,5.81806,0,0,1-.45-.4l-.78-.84-1.6-1.62c-.56-.59-1-1.13-1.6-1.72-.27-.3-.55-.5-.82-.79-1.32-1.42-2.46-2.91-4.36-3.81a8.24,8.24,0,0,0-8.83,1.05L117.64,28.01a15.56068,15.56068,0,0,1-1.51-.78c-1.5-.82-3-1.47-4.56-2.16a55.32837,55.32837,0,0,0-6.61-2.4c-.07-2.29.11-13.72,0-15.19A8.33,8.33,0,0,0,102.5,2.4C100.01.08,98.41.4,97.3.05H74.11a11.43985,11.43985,0,0,0-3,.79,8.29,8.29,0,0,0-4.72,6.6c-.23,2,.08,14.45,0,15.06-.11.25,0,.12-.35.26l-.46.14a65.80112,65.80112,0,0,0-8.96,3.5l-3,1.53c-.83-.9-2.84-2.66-3.32-3.22a19.67845,19.67845,0,0,0-1.68-1.63l-5-4.8a8.11,8.11,0,0,0-4.08-2.35,8.4,8.4,0,0,0-5.53.63,11.5999,11.5999,0,0,0-3.56,3l-9.65,10c-.53.57-1.1,1.09-1.64,1.67-1.22,1.31-2,2-3.19,3.35a8.42,8.42,0,0,0-.54,9.8,28.512,28.512,0,0,0,2.34,2.59c1,.93,1.46,1.31,2.47,2.38.52.54,1.16,1.07,1.72,1.6l3.26,3.2a19.89917,19.89917,0,0,0,1.67,1.54c-.29.76-.86,1.85-1.23,2.61s-.77,1.73-1.13,2.62l-1.51,4.1c-.13.4-.31,1.28-.55,1.34h-7.5c-5,0-9.11-.85-12.49,2.37C.26,70.84.31,73.07,0,73.73Z"
        transform="translate(0 -0.05)" />
</svg>