<svg id="svg5" xmlns="http://www.w3.org/2000/svg" viewBox="0 0 568.37 184.62"><defs><style>.cls-1,.cls-2{fill:#d7b369;fill-rule:evenodd;}.cls-2{stroke:#d7b369;stroke-miterlimit:10;}</style></defs><g id="Layer1000"><path id="path34" class="cls-1" d="M433.72,328l6.77,7.39q-6.5,5.73-12.21,10.07c2.58,2.55,6,6,10.34,10.42q5,5.28,8.8,9.63h-13.7l-13-13.8c-8.18,6.74-14.81,11.18-19.94,13.23A42.62,42.62,0,0,1,384.59,368q-11.34,0-18.2-6.72a22.49,22.49,0,0,1-6.86-16.77,29.13,29.13,0,0,1,4.6-15.19q4.62-7.6,18.8-19.24Q375,300,372.72,295.16a21.75,21.75,0,0,1-2.25-9.2,16.08,16.08,0,0,1,5.65-12.59c4.35-3.9,9.77-5.83,16.24-5.83a24.42,24.42,0,0,1,11.18,2.55,19,19,0,0,1,7.73,6.88,17.27,17.27,0,0,1,2.66,9.18A21.35,21.35,0,0,1,410.47,297q-3.5,5.81-13.72,14.77L411.65,328l9.73,10.19c5.19-4,9.32-7.45,12.34-10.19Zm-43-23.77a49.82,49.82,0,0,0,10.73-11.27,13.33,13.33,0,0,0,2.53-7,7.55,7.55,0,0,0-3.3-6.09,13.88,13.88,0,0,0-8.75-2.55,13.2,13.2,0,0,0-8.47,2.62,7.87,7.87,0,0,0-3.26,6.23,10.57,10.57,0,0,0,1.32,5.19,81.79,81.79,0,0,0,9.2,12.85Zm-1.29,13.56q-12.45,9.74-16.31,15.47c-2.58,3.83-3.85,7.39-3.85,10.64A13.69,13.69,0,0,0,374,354.1a16.47,16.47,0,0,0,11.62,4.43,24.88,24.88,0,0,0,10.23-2.24c5.26-2.36,11.25-6.32,18-11.91L398.35,328C395.68,325.06,392.7,321.67,389.4,317.75Z" transform="translate(-19.96 -226.1)"/><path id="path36" class="cls-1" d="M225.8,369.28V267.68h20.37q22,0,32,3.65a43,43,0,0,1,22.32,18q8,12.78,8,30.45,0,15.28-6.37,26.87c-4.24,7.73-9.78,13.46-16.54,17.14s-16.31,5.52-28.55,5.52Zm9.43-9.62h11.33q20.29,0,28.13-2.62a32.71,32.71,0,0,0,17.38-13.42q6.31-9.72,6.31-23.73c0-9.78-2.28-18.18-6.86-25.11a34.46,34.46,0,0,0-19.09-14.3q-9.18-2.89-30.27-2.9h-6.93Z" transform="translate(-19.96 -226.1)"/><path id="path38" class="cls-1" d="M544.89,269l26.23,59.3a23.26,23.26,0,0,0,6.47-6c3.09,1.45,4.76,2.65,6.35,3.48a38.41,38.41,0,0,1-9.75,9.45l14.14,32H577.41l-9.91-22-2.59-5.86a28.76,28.76,0,0,1-7,.86c-6.77,0-13.85-2.53-20.74-6.36-9.22-5.11-15.75-4.53-19-3.47l-2.57,5.75-13.92,31.08H490.42L534.37,269Zm16.9,63.3L557,321.55h0l-17.4-39-12.72,28.39h0l-.56,1.27-4.19,9.34h0l-.47,1.05a30.17,30.17,0,0,1,11.65,1c8.71,2.82,13.84,8.9,23.19,9.18a21.69,21.69,0,0,0,5.23-.5Z" transform="translate(-19.96 -226.1)"/></g><path id="path47" class="cls-2" d="M124.72,402.37a54.12,54.12,0,0,0,9.86-12.32,82.51,82.51,0,0,0,4.82-9.38,95.1,95.1,0,0,0,3.84-10.37,110.7,110.7,0,0,1,12.25,3.49c1.83.65,9.84,3.83,10.8,4.85L162,383.35c-.75.77-1.46,1.52-2.28,2.22l-1.15,1.06c-1.07,1.08-5.13,4.28-6.15,5-2,1.4-3.23,2.25-5.36,3.57a74.66,74.66,0,0,1-12,6c-2.42.95-11.19,3.9-13.84,4ZM45.89,378.64A43.86,43.86,0,0,1,51.13,376c4.1-1.82,13.59-5,17.81-5.67a100.42,100.42,0,0,0,3.86,10.41,77.07,77.07,0,0,0,4.82,9.38A64.56,64.56,0,0,0,82,396.45c.73,1,1.47,1.71,2,2.4l1.26,1.38c.61.66,1.21,1.13,1.82,1.75,1.08,1.11,3.6,2.93,3.86,3.21a63.29,63.29,0,0,1-7.27-1.76,77.12,77.12,0,0,1-23.94-11.85c-2.27-1.64-3.12-2.47-5-4-.24-.19-.4-.37-.63-.55a4.49,4.49,0,0,1-.59-.52c-.21-.21-.38-.32-.6-.51l-2.79-2.73A9.6,9.6,0,0,1,49,382.16l-2.1-2.33a12,12,0,0,1-1-1.19Zm62-12.22c10.49.14,22,1,31.85,3.14A93.19,93.19,0,0,1,134.9,382,68.6,68.6,0,0,1,127.57,394a47.85,47.85,0,0,1-4.07,4.59l-1.08,1c-3.9,3.34-8.47,6.45-14.55,6.93Zm-35.44,3.15a35.81,35.81,0,0,1,3.63-.7c3.9-.64,7.56-1.18,11.54-1.55,5.57-.52,11-.83,16.69-.9v40.16a23.79,23.79,0,0,1-12.21-5,36.58,36.58,0,0,1-3.41-3L87.08,397c-.19-.22-.31-.4-.51-.6-.63-.63-2.39-2.89-2.91-3.63a80.52,80.52,0,0,1-11.21-23.17Zm-1-3.45a81.39,81.39,0,0,1-2-8,140.17,140.17,0,0,1-3-26.61h37.88c0,2.83.08,30.92-.06,31.31-5.68,0-11.61.35-17.2.94-6.26.66-9.6,1.27-15.63,2.33Zm36.45-34.58h37.88a131.11,131.11,0,0,1-1.53,18.33c-.35,2.37-2.45,14-3.46,16.24-2.55-.44-5.09-.94-7.71-1.34a183.52,183.52,0,0,0-25.18-1.92Zm36.42,35.34c.23-1.23.71-2.76,1-4,1-4.06,1.84-8.52,2.46-12.68a152.78,152.78,0,0,0,1.55-18.64h35.41a78.42,78.42,0,0,1-13,39.88c-.51.77-1,1.43-1.53,2.21a19.58,19.58,0,0,1-1.61,2.14,12.67,12.67,0,0,1-1.4-.75L163,373a99.49,99.49,0,0,0-18.75-6.09Zm-98,7.47c-.65.3-2.28,1.28-2.68,1.42a50.79,50.79,0,0,1-3.18-4.41,78.28,78.28,0,0,1-13-39.82l35.41,0a144.83,144.83,0,0,0,4,31.36l1,4c-2.11.41-4.64,1.09-6.64,1.7s-4.17,1.27-6.23,2-4,1.54-5.94,2.39c-1,.44-1.88.93-2.81,1.36ZM86.44,328c-.52-.18-1.69-2.16-1.93-2.59A25,25,0,0,1,81,315.45a25.61,25.61,0,0,1,2.67-14.91,26.94,26.94,0,0,1,4.82-6.48,32.42,32.42,0,0,1,3.71-2.93A25.26,25.26,0,0,1,122.45,293l2.3,2.21c.68.81,1.34,1.56,2,2.5a25.35,25.35,0,0,1,1,27.66c-.29.48-.58.9-.88,1.34a13.39,13.39,0,0,0-.91,1.29Zm3.89-76.12c.15-1.24,0-3.34,0-4.68,0-2.73-.23-12.31.25-13.78a4.69,4.69,0,0,1,2.09-2.58c1.24-.75,2.44-.64,4-.64h18.71c1.68,0,2.72-.12,4,.64a4.78,4.78,0,0,1,2.11,2.58c.46,1.38.24,7.19.24,9.11v9.37a65.18,65.18,0,0,1,8.9,3.07c1.43.61,2.63,1.25,4,1.91s2.53,1.56,3.81,2.11c.53-.41,1.1-1,1.62-1.49l6.21-6c.5-.46,1.15-1,1.58-1.48s1-1,1.55-1.52c.28-.26.52-.47.79-.73a6.22,6.22,0,0,1,.77-.77,4.69,4.69,0,0,1,4.77-.72c1.61.62,2.24,1.95,3.28,2.84a16.84,16.84,0,0,1,1.51,1.55c.26.28.47.53.74.8s.26.21.41.35l.37.39,1.47,1.59,9,9.33a4.4,4.4,0,0,1,1.18,1.88,4.64,4.64,0,0,1-1,4.63c-.5.51-1,1.05-1.53,1.54l-4.67,4.51c-.66.62-1.38,1.18-2,1.85l-4.24,4.16a62.06,62.06,0,0,1,6,14.88c4.64.05,9.31,0,14,0,2.31,0,4.41-.3,5.94,1s1.81,2.32,1.81,5.09v13.86c0,2.28.08,4.72,0,7a4.68,4.68,0,0,1-2.79,4.11c-1.49.64-4.74.4-6.58.4H130.3c.23-.53.63-1.06.92-1.59a29.5,29.5,0,0,0,2.25-5.06,29,29,0,0,0,1.44-8.33,28.85,28.85,0,0,0-28.82-29.58c-21.55,0-35,22.47-25.95,41.42.45.94,1.44,2.38,1.75,3.14H33.22c-1.88,0-5,.26-6.47-.43A4.69,4.69,0,0,1,24,323.29c0-2.28,0-4.61,0-6.89V302.54a7.67,7.67,0,0,1,.37-3.13c1.39-3.23,4.25-2.89,7.46-2.89H45.74a47.86,47.86,0,0,1,2.61-7.85c.52-1.25,1.1-2.53,1.63-3.63s1.24-2.27,1.75-3.42l-7-6.82c-.75-.8-1.63-1.38-2.35-2.24l-3.1-3a4.83,4.83,0,0,1-.92-4.65A10.74,10.74,0,0,1,41,261.45l13.54-14a4.88,4.88,0,0,1,6.58-.48l.76.77c.29.26.51.47.79.74L67.37,253c1.06,1,2.07,2,3.13,3l3.11,3c.63-.3,1.28-.74,1.93-1.09,2-1.07,3.89-2.07,6-3,1.4-.59,2.79-1.14,4.29-1.66.88-.3,4-1.16,4.52-1.4ZM20.46,300.28v23.57c.19.72.18,1.35.45,2.13a9.28,9.28,0,0,0,1.75,2.93c1.31,1.22,1.17.76,1.21,2.2A82.13,82.13,0,0,0,42.8,380.54c.19.24.43.54.62.74L46,384.15c.43.5.84.86,1.3,1.33l3.39,3.33a88.93,88.93,0,0,0,9.8,7.63c2.47,1.66,4.12,2.56,6.7,4a80.47,80.47,0,0,0,11.17,5,82.43,82.43,0,0,0,62.76-3,85.32,85.32,0,0,0,13.44-8c1-.77,2-1.51,3-2.32l5.68-5c.5-.46.91-.87,1.38-1.35a74.06,74.06,0,0,0,6.29-7.14,81.93,81.93,0,0,0,16.38-37.37,75.88,75.88,0,0,0,1-9.7c.06-2,0-1.44.61-2.05a8.56,8.56,0,0,0,2.24-3.2c.28-.67.36-1.66.57-2.14V300.32c-.28-.59-.29-2.94-2.47-5A8.58,8.58,0,0,0,184.1,293c-2.08-.18-14.4.09-14.83,0-.21-.06-.45-1-.58-1.4l-1.51-4.1-2.33-5.16a15.12,15.12,0,0,0,1.7-1.6c.62-.76,4.27-4,5-4.81l3.33-3.22c4-3.69,3.56-9.37-.34-12.87a31.59,31.59,0,0,1-2.21-2.29l-.13-.12-.49-.45c-1.12-1.1-3.5-3.82-4.4-4.62a5.82,5.82,0,0,1-.45-.4l-.78-.84-1.6-1.62c-.56-.59-1-1.13-1.6-1.72-.27-.3-.55-.5-.82-.79-1.32-1.42-2.46-2.91-4.36-3.81a8.24,8.24,0,0,0-8.83,1.05l-10.77,10.38a15.56,15.56,0,0,1-1.51-.78c-1.5-.82-3-1.47-4.56-2.16a55.33,55.33,0,0,0-6.61-2.4c-.07-2.29.11-13.72,0-15.19a8.33,8.33,0,0,0-2.46-5.08c-2.49-2.32-4.09-2-5.2-2.35H94.57a11.44,11.44,0,0,0-3,.79,8.29,8.29,0,0,0-4.72,6.6c-.23,2,.08,14.45,0,15.06-.11.25,0,.12-.35.26l-.46.14A65.8,65.8,0,0,0,77.08,253l-3,1.53c-.83-.9-2.84-2.66-3.32-3.22a19.68,19.68,0,0,0-1.68-1.63l-5-4.8A8.11,8.11,0,0,0,60,242.53a8.4,8.4,0,0,0-5.53.63,11.6,11.6,0,0,0-3.56,3l-9.65,10c-.53.57-1.1,1.09-1.64,1.67-1.22,1.31-2,2-3.19,3.35a8.42,8.42,0,0,0-.54,9.8,28.51,28.51,0,0,0,2.34,2.59c1,.93,1.46,1.31,2.47,2.38.52.54,1.16,1.07,1.72,1.6l3.26,3.2a19.9,19.9,0,0,0,1.67,1.54c-.29.76-.86,1.85-1.23,2.61s-.77,1.73-1.13,2.62l-1.51,4.1c-.13.4-.31,1.28-.55,1.34H35.43c-5,0-9.11-.85-12.49,2.37-2.22,2.11-2.17,4.34-2.48,5Z" transform="translate(-19.96 -226.1)"/></svg>