<svg id="svg5" xmlns="http://www.w3.org/2000/svg" viewBox="0 0 365.05897 104.70058">
    <defs>
        <style>
            .cls-1,.cls-2{fill:#000000;stroke-miterlimit:10;stroke-width:2px;fill-rule:evenodd;}.cls-1{stroke:#000000;}.cls-2{stroke:#000000;}</style>
    </defs>
    <g id="Layer1000">
        <path id="path34" class="cls-1"
            d="M436.46128,102.40628l6.76657,7.38184q-6.49284,5.73129-12.21088,10.071,3.86265,3.82137,10.34256,10.42474,5.02332,5.27175,8.79312,9.62272H436.46128L423.43289,126.109c-8.17791,6.74545-14.8074,11.17987-19.933,13.23111a42.5412,42.5412,0,0,1-16.174,3.11307q-11.34306,0-18.20023-6.72147a22.496,22.496,0,0,1-6.85687-16.76843,29.09008,29.09008,0,0,1,4.602-15.18875q4.61247-7.60713,18.79327-19.24509-7.92768-10.11818-10.20575-14.92993a21.66867,21.66867,0,0,1-2.25494-9.19815,16.1007,16.1007,0,0,1,5.6499-12.59381q6.52542-5.83842,16.24088-5.82557a24.46321,24.46321,0,0,1,11.18445,2.54657,18.89957,18.89957,0,0,1,7.72314,6.88712,17.19392,17.19392,0,0,1,2.66541,9.17444,21.38752,21.38752,0,0,1-3.46289,10.873q-3.48468,5.8023-13.71344,14.76429l14.89743,16.1791,9.72766,10.18891q7.78966-6.085,12.3453-10.18891ZM393.43137,78.63287A49.86974,49.86974,0,0,0,404.16071,67.3591a13.37,13.37,0,0,0,2.52841-6.981,7.54969,7.54969,0,0,0-3.3028-6.08517,13.88635,13.88635,0,0,0-8.748-2.54688,13.16377,13.16377,0,0,0-8.47354,2.61774,7.87228,7.87228,0,0,0-3.2576,6.22614,10.57165,10.57165,0,0,0,1.321,5.18927,81.46171,81.46171,0,0,0,9.2031,12.85372Zm-1.29825,13.5615q-12.43836,9.72847-16.31006,15.47137c-2.57452,3.82083-3.84976,7.38245-3.84976,10.63715a13.67522,13.67522,0,0,0,4.73813,10.235,16.42649,16.42649,0,0,0,11.6181,4.43442A24.96633,24.96633,0,0,0,398.5571,130.732q7.893-3.53825,18.01791-11.91074l-15.48959-16.392c-2.6654-2.92419-5.64951-6.31991-8.9523-10.23489Z"
            transform="translate(-227.46063 -40.02208)" />
        <path id="path36" class="cls-2"
            d="M228.46063,142.67838V41.07446l20.44449,1.04431q22.00512,0,31.95975,3.65549a42.94022,42.94022,0,0,1,22.32437,17.97183q8.03,12.7711,8.04083,30.44809,0,15.28336-6.37808,26.86365c-4.23627,7.73584-9.77249,13.46661-16.53811,17.14581q-10.18164,5.51935-28.54236,5.519Zm9.5105-8.57837h11.32248q20.2954,0,28.1315-2.61774a32.72755,32.72755,0,0,0,17.38162-13.41983q6.32031-9.72845,6.30991-23.72662c0-9.78745-2.27792-18.18366-6.85657-25.11786a34.49707,34.49707,0,0,0-19.0899-14.29264q-9.19153-2.90139-30.274-2.90124h-6.92511Z"
            transform="translate(-227.46063 -40.02208)" />
        <path id="path38" class="cls-1"
            d="M547.62839,43.461l26.23224,59.30313c2.9295-1.91483,5.13525-5.17572,6.38055-7.04334,3.09485,1.45032,4.76087,2.64658,6.35242,3.47846a38.45372,38.45372,0,0,1-9.74811,9.44894L590.9838,140.6105H580.0654l-9.83331-20.95718-2.58978-5.85709a29.19538,29.19538,0,0,1-6.97937.85984c-6.764.01623-13.8454-2.53516-20.73694-6.36-9.22028-5.11651-15.74555-4.5383-18.95569-3.47458l-2.572,5.74637-13.92487,31.087H493.15494l43.95435-98.194Zm16.8996,63.29559-4.76343-10.76864h.03247L542.39462,56.98773l-12.72277,28.3971h-.001l-.56751,1.26648-4.18261,9.33651h.00659l-.47137,1.0521a30.386,30.386,0,0,1,11.65509,1.03689c8.7077,2.8226,13.83654,8.90576,23.1809,9.18457a21.61458,21.61458,0,0,0,5.23932-.50479Z"
            transform="translate(-227.46063 -40.02208)" />
    </g>
</svg>